<svg xmlns="http://www.w3.org/2000/svg" xmlns:xlink="http://www.w3.org/1999/xlink" width="500" zoomAndPan="magnify" viewBox="0 0 375 374.999991" height="500" preserveAspectRatio="xMidYMid meet" version="1.0"><defs><g/></defs><g fill="#2b2b2b" fill-opacity="1"><g transform="translate(154.735828, 280.970373)"><g><path d="M 10.011719 0 L 41.820312 0 L 41.820312 -2.550781 C 35.734375 -4.320312 33.96875 -8.835938 33.96875 -24.9375 L 33.96875 -71.273438 L 108.773438 -71.273438 L 108.773438 -24.9375 C 108.773438 -8.835938 106.8125 -4.320312 100.921875 -2.550781 L 100.921875 0 L 132.730469 0 L 132.730469 -2.550781 C 126.640625 -4.320312 124.875 -8.835938 124.875 -24.9375 L 124.875 -112.503906 C 124.875 -128.605469 126.640625 -133.121094 132.730469 -134.890625 L 132.730469 -137.441406 L 100.921875 -137.441406 L 100.921875 -134.890625 C 106.8125 -133.121094 108.773438 -128.605469 108.773438 -112.503906 L 108.773438 -74.414062 L 33.96875 -74.414062 L 33.96875 -112.503906 C 33.96875 -128.605469 35.734375 -133.121094 41.820312 -134.890625 L 41.820312 -137.441406 L 10.011719 -137.441406 L 10.011719 -134.890625 C 15.902344 -133.121094 17.867188 -128.605469 17.867188 -112.503906 L 17.867188 -24.9375 C 17.867188 -8.835938 15.902344 -4.320312 10.011719 -2.550781 Z M 10.011719 0 "/></g></g></g><g fill="#2b2b2b" fill-opacity="1"><g transform="translate(64.441197, 226.909948)"><g><path d="M 70.09375 -114.273438 L 87.960938 -70.878906 L 66.953125 -19.4375 L 30.628906 -114.078125 C 24.9375 -129.195312 23.5625 -133.121094 29.648438 -134.890625 L 29.648438 -137.441406 L -0.785156 -137.441406 L -0.785156 -134.890625 C 3.535156 -133.121094 8.050781 -129.195312 13.742188 -114.078125 L 57.136719 0 L 62.632812 0 L 89.730469 -66.5625 L 117.023438 0 L 122.519531 0 L 163.554688 -114.078125 C 169.054688 -129 173.765625 -133.121094 179.261719 -134.890625 L 179.261719 -137.441406 L 157.074219 -137.441406 L 157.074219 -134.890625 C 163.75 -133.515625 164.929688 -126.839844 160.21875 -114.078125 L 126.054688 -19.832031 L 99.546875 -84.035156 L 110.542969 -114.078125 C 116.039062 -129 120.753906 -133.121094 126.25 -134.890625 L 126.25 -137.441406 L 104.652344 -137.441406 L 104.652344 -134.890625 C 111.132812 -133.515625 111.917969 -127.035156 107.007812 -114.078125 L 97.582031 -88.550781 L 86.980469 -114.46875 C 80.894531 -129.195312 79.324219 -133.121094 85.214844 -134.890625 L 85.214844 -137.441406 L 55.171875 -137.441406 L 55.171875 -134.890625 C 59.492188 -133.121094 64.203125 -129.195312 70.09375 -114.273438 Z M 70.09375 -114.273438 "/></g></g></g><path fill="#f4f4f4" d="M 115.417969 199.257812 L 259.453125 199.257812 L 259.453125 228.363281 L 115.417969 228.363281 L 115.417969 199.257812 " fill-opacity="1" fill-rule="nonzero"/><g fill="#2b2b2b" fill-opacity="1"><g transform="translate(125.154027, 219.810382)"><g><path d="M 7.230469 -11.785156 L 9.070312 -7.308594 L 6.90625 -2.003906 L 3.160156 -11.765625 C 2.570312 -13.324219 2.429688 -13.730469 3.058594 -13.910156 L 3.058594 -14.175781 L -0.0820312 -14.175781 L -0.0820312 -13.910156 C 0.363281 -13.730469 0.832031 -13.324219 1.417969 -11.765625 L 5.894531 0 L 6.460938 0 L 9.253906 -6.863281 L 12.070312 0 L 12.636719 0 L 16.867188 -11.765625 C 17.433594 -13.304688 17.921875 -13.730469 18.488281 -13.910156 L 18.488281 -14.175781 L 16.199219 -14.175781 L 16.199219 -13.910156 C 16.886719 -13.769531 17.011719 -13.082031 16.523438 -11.765625 L 13 -2.046875 L 10.265625 -8.667969 L 11.402344 -11.765625 C 11.96875 -13.304688 12.453125 -13.730469 13.019531 -13.910156 L 13.019531 -14.175781 L 10.792969 -14.175781 L 10.792969 -13.910156 C 11.460938 -13.769531 11.542969 -13.101562 11.035156 -11.765625 L 10.0625 -9.132812 L 8.972656 -11.804688 C 8.34375 -13.324219 8.179688 -13.730469 8.789062 -13.910156 L 8.789062 -14.175781 L 5.691406 -14.175781 L 5.691406 -13.910156 C 6.136719 -13.730469 6.621094 -13.324219 7.230469 -11.785156 Z M 7.230469 -11.785156 "/></g></g></g><g fill="#2b2b2b" fill-opacity="1"><g transform="translate(146.701073, 219.810382)"><g><path d="M 1.03125 0 L 11.015625 0 L 11.179688 -2.691406 L 10.957031 -2.734375 C 10.226562 -0.851562 8.992188 -0.304688 7.046875 -0.304688 L 4.414062 -0.304688 C 3.828125 -0.304688 3.503906 -0.628906 3.503906 -1.214844 L 3.503906 -7.433594 L 6.09375 -7.433594 C 8.402344 -7.433594 8.992188 -6.964844 9.234375 -6.054688 L 9.476562 -6.054688 L 9.476562 -9.113281 L 9.234375 -9.113281 C 8.992188 -8.203125 8.402344 -7.734375 6.09375 -7.734375 L 3.503906 -7.734375 L 3.503906 -13.871094 L 6.480469 -13.871094 C 8.546875 -13.871094 9.742188 -13.265625 10.449219 -11.480469 L 10.671875 -11.542969 L 10.449219 -14.175781 L 1.03125 -14.175781 L 1.03125 -13.910156 C 1.640625 -13.730469 1.84375 -13.265625 1.84375 -11.601562 L 1.84375 -2.570312 C 1.84375 -0.910156 1.640625 -0.445312 1.03125 -0.261719 Z M 1.03125 0 "/></g></g></g><g fill="#2b2b2b" fill-opacity="1"><g transform="translate(161.808633, 219.810382)"><g><path d="M 1.03125 0 L 5.164062 0 C 10.085938 0 11.785156 -2.390625 11.746094 -4.65625 C 11.726562 -6.640625 10.265625 -8.28125 6.964844 -8.445312 C 9.273438 -8.871094 10.164062 -10.125 10.164062 -11.503906 C 10.164062 -13.140625 8.890625 -14.175781 5.769531 -14.175781 L 1.03125 -14.175781 L 1.03125 -13.910156 C 1.640625 -13.730469 1.84375 -13.265625 1.84375 -11.601562 L 1.84375 -2.570312 C 1.84375 -0.910156 1.640625 -0.445312 1.03125 -0.261719 Z M 3.503906 -2.066406 L 3.503906 -8.179688 L 5.570312 -8.179688 C 8.605469 -8.179688 9.902344 -6.480469 9.902344 -4.152344 C 9.902344 -1.902344 8.648438 -0.304688 5.347656 -0.304688 L 4.554688 -0.304688 C 3.683594 -0.304688 3.503906 -0.609375 3.503906 -2.066406 Z M 3.503906 -8.484375 L 3.503906 -13.871094 L 5.042969 -13.871094 C 7.128906 -13.871094 8.324219 -12.816406 8.324219 -11.136719 C 8.324219 -9.660156 7.390625 -8.484375 5.386719 -8.484375 Z M 3.503906 -8.484375 "/></g></g></g><g fill="#2b2b2b" fill-opacity="1"><g transform="translate(177.381941, 219.810382)"><g/></g></g><g fill="#2b2b2b" fill-opacity="1"><g transform="translate(184.814764, 219.810382)"><g><path d="M 1.03125 0 L 4.3125 0 L 4.3125 -0.261719 C 3.683594 -0.445312 3.503906 -0.910156 3.503906 -2.570312 L 3.503906 -7.351562 L 11.21875 -7.351562 L 11.21875 -2.570312 C 11.21875 -0.910156 11.015625 -0.445312 10.410156 -0.261719 L 10.410156 0 L 13.6875 0 L 13.6875 -0.261719 C 13.0625 -0.445312 12.878906 -0.910156 12.878906 -2.570312 L 12.878906 -11.601562 C 12.878906 -13.265625 13.0625 -13.730469 13.6875 -13.910156 L 13.6875 -14.175781 L 10.410156 -14.175781 L 10.410156 -13.910156 C 11.015625 -13.730469 11.21875 -13.265625 11.21875 -11.601562 L 11.21875 -7.675781 L 3.503906 -7.675781 L 3.503906 -11.601562 C 3.503906 -13.265625 3.683594 -13.730469 4.3125 -13.910156 L 4.3125 -14.175781 L 1.03125 -14.175781 L 1.03125 -13.910156 C 1.640625 -13.730469 1.84375 -13.265625 1.84375 -11.601562 L 1.84375 -2.570312 C 1.84375 -0.910156 1.640625 -0.445312 1.03125 -0.261719 Z M 1.03125 0 "/></g></g></g><g fill="#2b2b2b" fill-opacity="1"><g transform="translate(202.696568, 219.810382)"><g><path d="M 1.03125 0 L 11.015625 0 L 11.179688 -2.691406 L 10.957031 -2.734375 C 10.226562 -0.851562 8.992188 -0.304688 7.046875 -0.304688 L 4.414062 -0.304688 C 3.828125 -0.304688 3.503906 -0.628906 3.503906 -1.214844 L 3.503906 -7.433594 L 6.09375 -7.433594 C 8.402344 -7.433594 8.992188 -6.964844 9.234375 -6.054688 L 9.476562 -6.054688 L 9.476562 -9.113281 L 9.234375 -9.113281 C 8.992188 -8.203125 8.402344 -7.734375 6.09375 -7.734375 L 3.503906 -7.734375 L 3.503906 -13.871094 L 6.480469 -13.871094 C 8.546875 -13.871094 9.742188 -13.265625 10.449219 -11.480469 L 10.671875 -11.542969 L 10.449219 -14.175781 L 1.03125 -14.175781 L 1.03125 -13.910156 C 1.640625 -13.730469 1.84375 -13.265625 1.84375 -11.601562 L 1.84375 -2.570312 C 1.84375 -0.910156 1.640625 -0.445312 1.03125 -0.261719 Z M 1.03125 0 "/></g></g></g><g fill="#2b2b2b" fill-opacity="1"><g transform="translate(217.804129, 219.810382)"><g><path d="M 11.339844 0.140625 C 11.746094 0.140625 12.273438 0.101562 12.574219 0 L 12.574219 -0.242188 C 12.472656 -0.222656 12.371094 -0.222656 12.25 -0.222656 C 11.5625 -0.222656 11.15625 -0.890625 10.1875 -3.320312 C 9.214844 -5.8125 8.828125 -7.046875 6.339844 -7.371094 C 8.972656 -7.675781 10.347656 -9.113281 10.347656 -11.015625 C 10.347656 -12.816406 9.132812 -14.175781 5.023438 -14.175781 L 1.03125 -14.175781 L 1.03125 -13.910156 C 1.660156 -13.730469 1.84375 -13.265625 1.84375 -11.601562 L 1.84375 -2.570312 C 1.84375 -0.910156 1.660156 -0.445312 1.03125 -0.261719 L 1.03125 0 L 4.3125 0 L 4.3125 -0.261719 C 3.683594 -0.445312 3.503906 -0.910156 3.503906 -2.570312 L 3.503906 -7.308594 L 4.800781 -7.308594 C 7.230469 -7.308594 7.390625 -5.894531 8.566406 -3.097656 C 9.457031 -0.992188 9.78125 0.140625 11.339844 0.140625 Z M 3.503906 -7.613281 L 3.503906 -13.832031 C 3.828125 -13.851562 4.152344 -13.871094 4.453125 -13.871094 C 7.453125 -13.871094 8.625 -12.351562 8.625 -10.550781 C 8.625 -8.828125 7.53125 -7.613281 5.203125 -7.613281 Z M 3.503906 -7.613281 "/></g></g></g><g fill="#2b2b2b" fill-opacity="1"><g transform="translate(233.377443, 219.810382)"><g><path d="M 8.261719 0.203125 C 11.664062 0.203125 15.429688 -2.023438 15.429688 -7.027344 C 15.429688 -11.988281 11.683594 -14.335938 8.261719 -14.335938 C 3.96875 -14.335938 1.054688 -11.257812 1.054688 -7.109375 C 1.054688 -2.085938 4.820312 0.203125 8.261719 0.203125 Z M 2.671875 -8.28125 C 2.550781 -11.582031 4.355469 -13.871094 7.433594 -13.871094 C 11.054688 -13.871094 13.710938 -9.921875 13.851562 -5.691406 C 13.953125 -2.652344 12.351562 -0.304688 9.113281 -0.304688 C 5.488281 -0.304688 2.816406 -4.210938 2.671875 -8.28125 Z M 2.671875 -8.28125 "/></g></g></g></svg>